<svg id="Capa_1" data-name="Capa 1" xmlns="http://www.w3.org/2000/svg" viewBox="0 0 495.4 596.08"><defs><style>.cls-1{fill:#cbd4d8;}.cls-2{fill:#021c51;}.cls-3{fill:#dee8ed;}.cls-4{fill:#fff3d2;}.cls-5{fill:#000921;}.cls-6{font-size:47.77px;fill:#070073;font-family:ARB66NeonBlockJUN-37, "ARB 66 Neon Block JUN-37";}.cls-7{letter-spacing:0.01em;}</style></defs><path class="cls-1" d="M420.5,541v46a8.8,8.8,0,0,1-8.79,8.79H83.64A8.8,8.8,0,0,1,74.85,587V541a8.8,8.8,0,0,1,8.79-8.79H411.71A8.8,8.8,0,0,1,420.5,541Z"/><path class="cls-2" d="M420.5,553.8V541a8.8,8.8,0,0,0-8.79-8.79H399l4.36-193.45c.34-14.47-10.51-26.39-24-26.39H307.13l56.68-64.3,80.12,59.13A29.42,29.42,0,0,1,454,320.51l39,103.55a34.3,34.3,0,0,1-4,31.71Z"/><path class="cls-3" d="M399,532.23H96.42L88.31,337.31c-.56-13.59,9.55-24.92,22.21-24.92H379.34c13.46,0,24.31,11.92,24,26.39Z"/><path class="cls-2" d="M420.5,183.79s-37.83-17.58-95.4-27.69c-42.67-7.52-96.22-10.92-153.22,0a360.55,360.55,0,0,0-97,33.2C76.46,184.94,229.32-230.19,420.5,183.79Z"/><path class="cls-4" d="M325.1,156.1S338,277.42,245.8,277.4c-94.12,0-73.92-121.3-73.92-121.3C228.88,145.18,282.43,148.58,325.1,156.1Z"/><path class="cls-2" d="M96.42,532.23H83.64A8.8,8.8,0,0,0,74.85,541V553.8L6.9,461.3a34.38,34.38,0,0,1-4.58-32.05l43.12-118A29.27,29.27,0,0,1,56,297.43L125,248.09l54.89,64.3H110.52c-12.66,0-22.77,11.33-22.21,24.92Z"/><path class="cls-5" d="M125,248.09,74.85,189.33s0,0,0,0a360.55,360.55,0,0,1,97-33.2s-20.2,121.27,73.92,121.3c92.16,0,79.3-121.3,79.3-121.3,57.57,10.11,95.4,27.69,95.4,27.69l-56.69,64.3-56.68,64.3H179.91Z"/><text class="cls-6" transform="translate(113.32 447.89)"><tspan class="cls-7">C</tspan><tspan x="26.13" y="0">YBERBOOK</tspan></text></svg>